HIERARCHY
ROOT hip
{
	OFFSET 0.000000 0.000000 0.000000
	CHANNELS 6 Xposition Yposition Zposition Xrotation Zrotation Yrotation 
	JOINT abdomen
	{
		OFFSET 0.000000 3.422050 0.000000
		CHANNELS 3 Xrotation Zrotation Yrotation 
		JOINT chest
		{
			OFFSET 0.000000 8.486693 -0.684411
			CHANNELS 3 Xrotation Zrotation Yrotation 
			JOINT neck
			{
				OFFSET 0.000000 10.266162 -0.273764
				CHANNELS 3 Xrotation Zrotation Yrotation 
				JOINT head
				{
					OFFSET 0.000000 3.148285 0.000000
					CHANNELS 3 Xrotation Zrotation Yrotation 
					End Site
					{
						OFFSET 0.000000 3.148289 0.000000
					}
				}
			}
			JOINT lCollar
			{
				OFFSET 3.422053 6.707223 -0.821293
				CHANNELS 3 Yrotation Zrotation Xrotation 
				JOINT lShldr
				{
					OFFSET 3.285171 0.000000 0.000000
					CHANNELS 3 Zrotation Yrotation Xrotation 
					JOINT lForeArm
					{
						OFFSET 10.129278 0.000000 0.000000
						CHANNELS 3 Yrotation Zrotation Xrotation 
						JOINT lHand
						{
							OFFSET 8.486692 0.000000 0.000000
							CHANNELS 3 Zrotation Yrotation Xrotation 
							End Site
							{
								OFFSET 4.106464 0.000000 0.000000
							}
						}
					}
				}
			}
			JOINT rCollar
			{
				OFFSET -3.558935 6.707223 -0.821293
				CHANNELS 3 Yrotation Zrotation Xrotation 
				JOINT rShldr
				{
					OFFSET -3.148289 0.000000 0.000000
					CHANNELS 3 Zrotation Yrotation Xrotation 
					JOINT rForeArm
					{
						OFFSET -10.266159 0.000000 0.000000
						CHANNELS 3 Yrotation Zrotation Xrotation 
						JOINT rHand
						{
							OFFSET -8.349810 0.000000 0.000000
							CHANNELS 3 Zrotation Yrotation Xrotation 
							End Site
							{
								OFFSET -4.106464 0.000000 0.000000
							}
						}
					}
				}
			}
		}
	}
	JOINT lThigh
	{
		OFFSET 5.338403 -1.642589 1.368821
		CHANNELS 3 Xrotation Zrotation Yrotation 
		JOINT lShin
		{
			OFFSET -2.053232 -20.121670 0.000000
			CHANNELS 3 Xrotation Zrotation Yrotation 
			JOINT lFoot
			{
				OFFSET 0.000000 -19.300380 -1.231939
				CHANNELS 3 Xrotation Yrotation Zrotation 
				End Site
				{
					OFFSET 0.000000 -2.463878 4.653993
				}
			}
		}
	}
	JOINT rThigh
	{
		OFFSET -5.338403 -1.642589 1.368821
		CHANNELS 3 Xrotation Zrotation Yrotation 
		JOINT rShin
		{
			OFFSET 2.053232 -20.121670 0.000000
			CHANNELS 3 Xrotation Zrotation Yrotation 
			JOINT rFoot
			{
				OFFSET 0.000000 -19.300380 -1.231939
				CHANNELS 3 Xrotation Yrotation Zrotation 
				End Site
				{
					OFFSET 0.000000 -2.463878 4.653993
				}
			}
		}
	}
}
MOTION
Frames: 9
Frame Time: 0.049989
0.000000 6.170990 0.000000 -90.000626 -1.097288 -49.999378 13.012380 -20.078646 -8.481697 11.808315 -23.724953 -16.286589 -39.003387 -12.001160 -15.999650 -27.000021 13.996127 -26.002079 -25.307589 -20.089336 5.458204 -2.022404 28.042883 -40.190434 -41.097187 4.998437 6.997523 0.999072 -20.001410 -60.001102 -33.216785 -0.380265 4.083062 13.398548 25.751101 35.311218 64.812180 -43.063469 22.105673 5.273434 3.054173 10.071190 -77.495338 45.950775 37.437302 -1.934861 -6.953395 0.560822 14.576046 -8.108930 6.625053 -77.546356 -30.692261 8.807068 70.290489 -2.992344 -0.193523 15.157389 -0.072953 16.128500 
0.000000 6.170990 0.000000 -90.001488 -2.193770 -49.999386 13.832851 -19.411331 -8.600124 12.545644 -23.882278 -16.393572 -39.003387 -12.001160 -15.999650 -27.000017 13.996123 -26.002075 -25.307589 -20.089336 5.458204 -2.040988 28.090649 -38.370026 -42.193130 4.998476 6.997463 0.999072 -20.001410 -60.001102 -33.017971 -0.258859 4.227667 13.398548 25.751101 35.311218 64.130539 -42.950001 21.644457 4.477613 3.128828 9.506123 -77.529030 46.112740 37.579369 -1.934861 -6.953395 0.560822 14.608420 -9.183944 6.820874 -76.011200 -30.368725 8.060880 70.038582 -2.935927 -0.182279 15.177256 -0.280450 16.268250 
0.000000 6.170990 0.000000 -90.002350 -3.291873 -49.999374 14.649629 -18.741621 -8.708107 13.284654 -24.038427 -16.502960 -39.003387 -12.001160 -15.999650 -27.000019 13.996124 -26.002077 -25.307589 -20.089336 5.458204 -2.057917 28.139111 -36.541206 -43.290668 4.998514 6.997399 0.999072 -20.001410 -60.001102 -32.819447 -0.136940 4.371861 13.398548 25.751101 35.311218 63.451237 -42.832500 21.185835 3.680151 3.195706 8.939402 -77.562218 46.274761 37.721725 -1.934861 -6.953395 0.560822 14.644689 -10.260414 7.018231 -74.482735 -30.027340 7.325820 69.786682 -2.879457 -0.171282 15.197631 -0.487913 16.408079 
0.000000 6.170990 0.000000 -90.003204 -4.391396 -49.999352 15.462833 -18.069757 -8.805723 14.025300 -24.193365 -16.614746 -39.003387 -12.001160 -15.999650 -27.000019 13.996124 -26.002077 -25.307589 -20.089336 5.458204 -2.073143 28.188208 -34.704868 -44.389633 4.998554 6.997338 0.999072 -20.001410 -60.001102 -32.621208 -0.014514 4.515644 13.398548 25.751101 35.311218 62.774349 -42.710991 20.729897 2.881238 3.254753 8.371216 -77.594940 46.436859 37.864380 -1.934861 -6.953395 0.560822 14.684918 -11.338138 7.217247 -72.961731 -29.668447 6.602630 69.534798 -2.822936 -0.160535 15.218517 -0.695340 16.548004 
0.000000 6.170990 0.000000 -90.004044 -5.492136 -49.999294 16.272583 -17.395983 -8.893051 14.767530 -24.347042 -16.728912 -39.003387 -12.001160 -15.999650 -27.000019 13.996124 -26.002077 -25.307589 -20.089336 5.458204 -2.086624 28.237877 -32.861912 -45.489822 4.998595 6.997278 0.999072 -20.001410 -60.001102 -32.423267 0.108417 4.659011 13.398548 25.751101 35.311218 62.099972 -42.585518 20.276730 2.081061 3.305920 7.801749 -77.627151 46.599018 38.007336 -1.934861 -6.953395 0.560822 14.729192 -12.416902 7.418047 -71.448967 -29.292444 5.892027 69.282921 -2.766365 -0.150036 15.239909 -0.902726 16.688019 
0.000000 6.170990 0.000000 -90.004921 -6.593902 -49.999241 17.079006 -16.720558 -8.970178 15.511285 -24.499407 -16.845438 -39.003387 -12.001160 -15.999650 -27.000019 13.996124 -26.002077 -25.307589 -20.089336 5.458204 -2.098317 28.288023 -31.013233 -46.591019 4.998637 6.997218 0.999072 -20.001410 -60.001102 -32.225620 0.231850 4.801962 13.398548 25.751101 35.311218 61.428207 -42.456112 19.826435 1.279818 3.349168 7.231197 -77.658882 46.761230 38.150574 -1.934861 -6.953395 0.560822 14.777595 -13.496501 7.620765 -69.945129 -28.899715 5.194662 69.031036 -2.709745 -0.139786 15.261810 -1.110070 16.828123 
0.000000 6.170990 0.000000 -90.005791 -7.696486 -49.999153 17.882210 -16.043711 -9.037173 16.256517 -24.650440 -16.964314 -39.003387 -12.001160 -15.999650 -27.000019 13.996124 -26.002077 -25.307589 -20.089336 5.458205 -2.108191 28.338587 -29.159796 -47.693039 4.998681 6.997159 0.999072 -20.001410 -60.001102 -32.028275 0.355780 4.944496 13.398548 25.751101 35.311218 60.759129 -42.322803 19.379089 0.477702 3.384461 6.659753 -77.690117 46.923508 38.294140 -1.934861 -6.953395 0.560822 14.830209 -14.576718 7.825532 -68.450844 -28.490700 4.511147 68.779182 -2.653078 -0.129786 15.284222 -1.317368 16.968327 
0.000000 6.170990 0.000000 -90.006660 -8.799676 -49.999062 18.682320 -15.365698 -9.094128 17.003174 -24.800083 -17.085514 -39.003391 -12.001161 -15.999652 -27.000019 13.996124 -26.002077 -25.307589 -20.089336 5.458204 -2.116215 28.389482 -27.302534 -48.795681 4.998726 6.997102 0.999072 -20.001410 -60.001102 -31.831232 0.480205 5.086609 13.398548 25.751101 35.311218 60.092846 -42.185650 18.934788 -0.325090 3.411774 6.087612 -77.720863 47.085861 38.438019 -1.934861 -6.953395 0.560822 14.887136 -15.657343 8.032492 -66.966774 -28.065887 3.842050 68.527336 -2.596367 -0.120035 15.307144 -1.524616 17.108627 
0.000000 6.170990 0.000000 -90.007545 -9.903278 -49.998947 19.479460 -14.686767 -9.141123 17.751192 -24.948299 -17.209019 -39.003387 -12.001159 -15.999650 -27.000017 13.996121 -26.002075 -25.307589 -20.089336 5.458204 -2.122371 28.440638 -25.442421 -49.898727 4.998773 6.997046 0.999072 -20.001410 -60.001102 -31.634483 0.605120 5.228299 13.398548 25.751101 35.311218 59.429417 -42.044674 18.493599 -1.128359 3.431084 5.514968 -77.751083 47.248245 38.582203 -1.934861 -6.953395 0.560822 14.948474 -16.738155 8.241784 -65.493477 -27.625759 3.187884 68.275505 -2.539612 -0.110534 15.330579 -1.731811 17.249027 
